<svg width="438" height="85" viewBox="0 0 438 85" fill="none" xmlns="http://www.w3.org/2000/svg">
<path d="M57.1235 11.5563C56.9185 10.9873 56.2167 9.1815 55.972 8.57999C55.6883 7.87719 55.6883 7.87719 54.86 7.72649L51.4598 7.2144L52.3048 9.28405L52.6564 10.1907C52.7229 10.387 52.934 10.8891 53.7636 11.0123L57.1235 11.5563ZM45.6354 0L46.9584 1.46939L48.2881 2.93941L46.9584 4.41505L45.6354 5.88382L44.2996 4.41505L42.9699 2.93941L44.2996 1.46939L45.6354 0ZM34.1122 11.5563C34.324 10.9873 35.0238 9.1815 35.2685 8.57999C35.5522 7.87719 35.5522 7.87719 36.3818 7.72649L39.7807 7.2144L38.935 9.28968L38.5854 10.1907C38.5128 10.387 38.3058 10.8891 37.4782 11.0123L34.1122 11.5563ZM55.1263 6.54098C54.9152 5.97198 54.2133 4.16619 53.9686 3.56593C53.6849 2.86187 53.6849 2.86187 52.8567 2.71243L49.4565 2.19408L50.3022 4.26999L50.6537 5.17538C50.7243 5.37172 50.9374 5.87319 51.7657 5.99386L55.1263 6.54098ZM36.1203 6.54098C36.3266 5.97198 37.0332 4.16619 37.2779 3.56593C37.5555 2.86187 37.5555 2.86187 38.3851 2.71243L41.784 2.19408L40.9383 4.26999L40.5881 5.17538C40.5222 5.37172 40.3091 5.87319 39.4748 5.99386L36.1203 6.54098ZM59.1262 16.5704C58.8815 15.9707 58.1749 14.1956 57.9356 13.5647C57.658 12.8606 57.658 12.8606 56.8237 12.7418L53.4624 12.1972L54.2698 14.2675L54.6201 15.1679C54.6927 15.3705 54.9044 15.8719 55.732 16.0276L59.1262 16.5704ZM32.1143 16.5704C32.3583 15.9707 33.0602 14.1956 33.3109 13.5647C33.5886 12.8606 33.5886 12.8606 34.4181 12.7418L37.7727 12.1972L36.972 14.2675L36.615 15.1679C36.5539 15.3705 36.3428 15.8719 35.5078 16.0276L32.1143 16.5704ZM61.0959 21.555C60.8472 20.986 60.1453 19.1784 59.9006 18.5744C59.6559 17.8747 59.6559 17.8747 58.7874 17.7559L55.4261 17.2069L56.2335 19.2828L56.5837 20.1838C56.696 20.3845 56.8674 20.886 57.6976 21.0417L61.0959 21.555ZM30.1439 21.555C30.3947 20.986 31.0952 19.1784 31.3412 18.5744C31.5859 17.8747 31.5859 17.8747 32.4531 17.7559L35.8144 17.2069L35.0084 19.2828L34.6568 20.1838C34.5458 20.3845 34.3724 20.886 33.5496 21.0417L30.1439 21.555ZM53.4234 28.7638C53.174 28.1948 52.4722 26.3884 52.2275 25.7875C51.9438 25.0847 51.9438 25.0847 51.1142 24.964L47.755 24.4213L48.5671 26.4916L48.9106 27.3963C48.9832 27.5989 49.195 28.096 50.0306 28.2517L53.4234 28.7638ZM37.6611 28.7638C37.9051 28.1948 38.6069 26.3884 38.8584 25.7875C39.1421 25.0847 39.1421 25.0847 39.9649 24.964L43.3309 24.4213L42.5188 26.4916L42.1685 27.3963C42.1006 27.5989 41.8896 28.096 41.0553 28.2517L37.6611 28.7638ZM63.0548 26.5691C62.8498 25.9688 62.148 24.1943 61.8972 23.594C61.6243 22.89 61.6243 22.89 60.79 22.7387L57.3911 22.2272L58.1971 24.2968L58.587 25.2035C58.6549 25.3692 58.866 25.9019 59.7003 26.0207L63.0548 26.5691ZM28.1856 26.5691C28.392 25.9688 29.0925 24.1943 29.3433 23.594C29.6222 22.89 29.6222 22.89 30.4505 22.7387L33.844 22.2272L33.0434 24.2968L32.6534 25.2035C32.5808 25.3692 32.3758 25.9019 31.5415 26.0207L28.1856 26.5691ZM65.0245 31.5481C64.8135 30.9785 64.1116 29.2084 63.8669 28.5775C63.5832 27.8734 63.5832 27.8734 62.755 27.7484L59.3547 27.2056L60.2065 29.2815L60.552 30.1807C60.6233 30.3832 60.8344 30.8847 61.6592 31.0348L65.0245 31.5481ZM26.2173 31.5481C26.4223 30.9785 27.1289 29.2084 27.3729 28.5775C27.6572 27.8734 27.6572 27.8734 28.4868 27.7484L31.8851 27.2056L31.04 29.2815L30.6898 30.1807C30.6172 30.3832 30.4061 30.8847 29.5765 31.0348L26.2173 31.5481ZM49.2897 18.5887C49.0054 18.0297 48.1933 16.2652 47.9049 15.6756C47.0484 13.8123 43.9036 13.8842 43.1258 15.79C42.8798 16.3946 42.1793 18.2017 41.9682 18.7707C46.4629 18.061 44.7554 18.1035 49.2897 18.5887ZM51.4154 23.5002C51.125 22.9106 50.3082 21.1767 50.0306 20.5871C49.7012 19.8987 49.7012 19.8987 48.8669 19.7905L45.517 19.4385L45.5123 19.4072L45.4787 19.4385L45.4727 19.4072L45.4787 19.4385L42.1181 19.95C41.2839 20.1056 41.2839 20.1056 41.0109 20.8097C40.7602 21.41 40.0597 23.1789 39.8533 23.7804L43.2079 23.2364C44.0374 23.1176 44.2552 22.5792 44.3211 22.4135L44.6713 21.5125L45.4787 19.4735L46.4125 21.4712L46.8199 22.3516C46.9032 22.5173 47.1479 23.0394 47.9822 23.122L51.4154 23.5002ZM55.8328 46.1251L56.6624 48.6612L57.7084 50.2132C56.2556 48.3867 51.8268 46.8185 46.7533 46.6997V51.1667L46.4125 51.1611C57.5585 51.5644 62.476 57.909 62.2367 65.2891C72.9309 65.5473 79.0014 72.7517 78.6673 81.8494C82.9287 82.7136 87.1081 83.7065 91.2028 84.8714H91.2418L71.9299 37.2663L69.6759 39.481C69.5152 39.641 69.4144 39.7967 69.3586 39.9418L73.5588 50.4976L71.8681 50.0268L65.2034 33.0119L61.4239 32.4223L67.6221 48.8638L65.8877 48.393L60.7288 34.5025L58.0539 37.0843L61.6418 47.2281L59.9114 46.7573L54.1421 30.2232L50.2975 29.4047L55.8328 46.1251ZM35.409 46.1251L34.5795 48.6612L33.5274 50.2132C34.9848 48.3867 39.4305 46.8248 44.5107 46.6997V51.1667V51.1611C33.366 51.5644 28.7645 57.909 28.9991 65.2891C18.3109 65.5473 12.2451 72.7517 12.5745 81.8494C8.31781 82.7136 4.1384 83.7065 0.0376463 84.8714H0L19.3119 37.2663L21.5646 39.481C21.7266 39.641 21.8214 39.7967 21.8812 39.9418L17.6817 50.4976L19.3724 50.0268L26.0391 33.0119L29.8112 32.4223L23.6244 48.8638L25.3541 48.393L30.5116 34.5025L33.1879 37.0843L29.6048 47.2281L31.3305 46.7573L37.0997 30.2232L40.9444 29.4047L35.409 46.1251ZM35.5804 77.4763C40.3595 77.4763 42.4791 78.2729 43.2428 78.7337C42.7077 78.0765 41.8008 76.2176 41.8008 72.047C41.8008 68.7043 43.2428 65.6311 45.6354 63.3114C48.0151 65.6311 49.4632 68.7043 49.4632 72.047C49.4632 76.2176 48.5496 78.0765 48.0548 78.7337C48.8165 78.2729 50.9032 77.4763 55.6768 77.4763C59.5504 77.4763 63.0326 78.7337 65.7311 80.8196C60.946 86.1801 30.3113 86.2476 25.5706 80.8196C28.2246 78.7337 31.7466 77.4763 35.5804 77.4763ZM60.0331 7.2244C60.2791 7.78902 60.9796 9.59481 61.2303 10.2007C61.508 10.8991 61.508 10.8991 60.9245 11.4481L58.6482 13.7141L57.8469 11.6388L57.4576 10.7028C57.385 10.5371 57.2176 10.0044 57.7635 9.44975L60.0331 7.2244ZM31.2074 7.2244C30.9627 7.78902 30.2609 9.59481 30.0115 10.2007C29.7325 10.8991 29.7325 10.8991 30.3227 11.4481L32.5923 13.7141L33.3929 11.6388L33.7889 10.7028C33.8507 10.5371 34.0289 10.0044 33.477 9.44975L31.2074 7.2244ZM58.0694 2.2416C58.3141 2.8106 59.0159 4.61639 59.2667 5.21602C59.5504 5.92071 59.5504 5.92071 58.9608 6.46907L56.6845 8.73131L55.8772 6.6554L55.494 5.72375C55.4214 5.55367 55.2493 5.01969 55.7999 4.47132L58.0694 2.2416ZM33.1711 2.2416C32.9217 2.8106 32.2198 4.61639 31.9751 5.21602C31.6962 5.92071 31.6962 5.92071 32.281 6.46907L34.5505 8.73131L35.3633 6.6554L35.7478 5.72375C35.8204 5.55367 35.9925 5.01969 35.4467 4.47132L33.1711 2.2416ZM62.0364 12.2397C62.2488 12.8031 62.9493 14.6089 63.194 15.2148C63.4777 15.9132 63.4777 15.9132 62.9271 16.4622L60.6179 18.6932L59.8058 16.6235L59.4603 15.7169C59.3884 15.5199 59.1766 15.0128 59.7272 14.4651L62.0364 12.2397ZM29.2041 12.2397C28.993 12.8031 28.2912 14.6089 28.0465 15.2148C27.7688 15.9132 27.7688 15.9132 28.3147 16.4622L30.6239 18.6932L31.436 16.6235L31.7795 15.7169C31.8521 15.5199 32.0639 15.0128 31.5133 14.4651L29.2041 12.2397ZM64.0014 17.2175C64.2064 17.819 64.9082 19.5935 65.159 20.2244C65.4366 20.9285 65.4366 20.9285 64.8908 21.4775L62.5769 23.7072L61.7762 21.6369L61.4192 20.7322C61.3581 20.5296 61.1463 20.0325 61.7298 19.4835L64.0014 17.2175ZM27.2404 17.2175C27.0341 17.819 26.3275 19.5935 26.0828 20.2244C25.8052 20.9285 25.8052 20.9285 26.3558 21.4775L28.6582 23.7072L29.4663 21.6369L29.8226 20.7322C29.8824 20.5296 30.1002 20.0325 29.51 19.4835L27.2404 17.2175ZM65.965 22.2328C66.1761 22.8331 66.878 24.6076 67.1227 25.2448C67.4063 25.9426 67.4063 25.9426 66.8558 26.4916L64.5452 28.7225L63.7331 26.651L63.3896 25.7462C63.317 25.5499 63.1053 25.0422 63.6955 24.4932L65.965 22.2328ZM25.2707 22.2328C25.0644 22.8331 24.3639 24.6076 24.1192 25.2448C23.8402 25.9426 23.8402 25.9426 24.3861 26.4916L26.6952 28.7225L27.5026 26.651L27.8529 25.7462C27.9248 25.5499 28.1366 25.0422 27.551 24.4932L25.2707 22.2328ZM69.8937 32.2622C70.1424 32.8312 70.8449 34.6063 71.089 35.2372C71.3727 35.9413 71.3726 35.9413 70.7831 36.4903L68.5135 38.72L67.7062 36.6497L67.3163 35.745C67.2437 35.5424 67.0722 35.0409 67.6221 34.4919L69.8937 32.2622ZM21.3421 32.2622C21.0974 32.8312 20.3976 34.6063 20.1468 35.2372C19.8739 35.9413 19.8739 35.9413 20.4574 36.4903L22.7283 38.72L23.5343 36.6497L23.9235 35.745C23.9961 35.5424 24.1682 35.0409 23.6177 34.4919L21.3421 32.2622ZM67.9287 27.2469C68.1747 27.8159 68.8813 29.591 69.1253 30.2232C69.4097 30.926 69.4097 30.926 68.8241 31.4744L66.5438 33.7059L65.7425 31.63L65.3526 30.7297C65.2867 30.5283 65.1133 30.0268 65.6591 29.4779L67.9287 27.2469ZM23.3118 27.2469C23.061 27.8159 22.3605 29.591 22.1165 30.2232C21.8328 30.926 21.8328 30.926 22.4224 31.4744L24.6919 33.7059L25.4993 31.63L25.8872 30.7297C25.9551 30.5283 26.1332 30.0268 25.5813 29.4779L23.3118 27.2469ZM56.9071 24.4625C57.1121 25.0315 57.8139 26.8023 58.0586 27.4388C58.3423 28.1416 58.3423 28.1416 57.7918 28.69L55.4832 30.9216L54.6819 28.8457L54.3256 27.9453C54.253 27.744 54.048 27.2425 54.5918 26.6935L56.9071 24.4625ZM34.3348 24.4625C34.1284 25.0315 33.4279 26.8023 33.1771 27.4388C32.8981 28.1416 32.8981 28.1416 33.4501 28.69L35.7586 30.9216L36.5646 28.8457L36.9162 27.9453C36.9828 27.744 37.1939 27.2425 36.644 26.6935L34.3348 24.4625ZM49.0054 4.44006C49.2171 5.00531 49.919 6.8111 50.163 7.41073C50.4474 8.11479 50.4474 8.11479 49.8968 8.66378L47.6273 10.8935L46.7863 8.81885L46.43 7.91845C46.3574 7.71587 46.1463 7.2144 46.7358 6.66541L49.0054 4.44006ZM42.2344 4.44006C42.0233 5.00531 41.3228 6.8111 41.0768 7.41073C40.7931 8.11479 40.7931 8.11479 41.345 8.66378L43.6146 10.8935L44.4603 8.81885L44.8105 7.91845C44.8831 7.71587 45.0942 7.2144 44.5046 6.66541L42.2344 4.44006ZM50.9758 9.41911C51.2151 10.0187 51.9216 11.7939 52.1663 12.426C52.4453 13.1289 52.4453 13.1289 51.8665 13.6778L49.5909 15.9088L48.7452 13.8329L48.3997 12.9325C48.3271 12.7312 48.116 12.2297 48.6995 11.6813L50.9758 9.41911ZM40.2714 9.41911C40.0207 10.0187 39.3202 11.7939 39.0742 12.426C38.7905 13.1289 38.7905 13.1289 39.38 13.6778L41.6509 15.9088L42.4966 13.8329L42.8468 12.9325C42.9127 12.7312 43.1258 12.2297 42.541 11.6813L40.2714 9.41911ZM52.9408 14.4332C53.1848 15.0347 53.8853 16.8098 54.13 17.4464C54.4137 18.1442 54.4137 18.1442 53.8241 18.6932L51.5546 20.9229L50.7089 18.8488L50.3586 17.9478C50.286 17.7452 50.0749 17.2438 50.6645 16.6954L52.9408 14.4332ZM38.3011 14.4332C38.057 15.0347 37.3552 16.8098 37.1105 17.4464C36.8329 18.1442 36.8329 18.1442 37.4164 18.6932L39.6859 20.9229L40.5329 18.8488L40.8832 17.9478C40.9558 17.7452 41.1669 17.2438 40.5773 16.6954L38.3011 14.4332ZM54.9044 19.4485C55.1552 20.0175 55.8503 21.8233 56.095 22.4235C56.3787 23.1276 56.3787 23.1276 55.7938 23.6766L53.5176 25.9382L52.7122 23.8316L52.327 22.9312C52.2564 22.7612 52.0823 22.2272 52.6282 21.6782L54.9044 19.4485ZM36.3428 19.4485C36.0914 20.0175 35.3915 21.8233 35.1468 22.4235C34.8631 23.1276 34.8631 23.1276 35.4467 23.6766L37.7222 25.9382L38.5303 23.8316L38.9195 22.9312C38.9861 22.7612 39.1575 22.2272 38.6137 21.6782L36.3428 19.4485ZM58.9037 29.4779C59.1154 30.0475 59.8173 31.822 60.0613 32.4529C60.3456 33.157 60.3456 33.157 59.7951 33.7059L57.4859 35.9357L56.6785 33.8654L56.3283 32.9606C56.2624 32.758 56.0506 32.2566 56.5951 31.7076L58.9037 29.4779ZM32.3361 29.4779C32.1251 30.0475 31.4246 31.822 31.1785 32.4529C30.8948 33.157 30.8948 33.157 31.4467 33.7059L33.7559 35.9357L34.562 33.8654L34.9136 32.9606C34.9848 32.758 35.1959 32.2566 34.6453 31.7076L32.3361 29.4779Z" fill="#1DB954"/>
<path d="M420.192 39.024L433.784 26.3354V26.1959H417.826V26.3354L421.854 30.8736L411.584 40.4734V30.8736L415.612 26.3354V26.1959H398.498V26.3354L402.52 30.8736V54.2907L398.498 58.8296V58.969H415.612V58.8296L411.584 54.2907V47.1232L413.75 45.0635L421.805 54.2907L417.771 58.8296V58.969H437.462V58.8296L420.192 39.024Z" fill="#1DB954"/>
<path d="M378.13 26.3334L382.16 30.8723V45.1091L366.602 26.194H351.146V26.3334L355.179 30.8723V54.2906L351.146 58.8276V58.9733H364.738V58.8276L360.716 54.2906V32.9375L382.16 58.9733H387.496V30.8723L391.524 26.3334V26.194H378.13V26.3334Z" fill="#1DB954"/>
<path d="M322.818 46.7492L326.797 38.0854L331.076 46.7492H322.818ZM330.925 26.194H326.797L313.862 54.3363L309.882 58.8276V58.9714H323.375V58.8276L319.347 54.3363L320.705 51.4319H333.39L334.798 54.2894L330.775 58.8276V58.9714H348.797V58.8276L344.767 54.2894L330.925 26.194Z" fill="#1DB954"/>
<path d="M297.047 49.4175C297.047 52.0405 294.832 54.2865 290.248 54.2865H288.689C287.533 54.2865 286.976 53.7744 286.976 52.6976V44.3609H290.804C294.782 44.3609 297.047 46.328 297.047 49.0923V49.4175ZM286.976 30.8756H289.897C294.126 30.8756 295.684 32.8884 295.684 35.14V35.4189C295.739 35.8384 295.583 37.1527 294.426 38.3689C293.77 39.0667 292.162 39.6788 290.148 39.6788H286.976V30.8756ZM299.862 40.5223C302.884 39.2593 304.753 36.7738 304.753 34.2965V34.012C304.753 31.8117 303.69 29.9383 301.531 28.4433C299.362 26.9427 295.834 26.1917 290.954 26.1917H273.884V26.3368L277.919 30.8756V54.2865L273.884 58.8309V58.9704H291.606C296.697 58.9704 300.569 58.08 303.19 56.3005C305.805 54.4784 307.117 52.1812 307.117 49.4175V49.0923C307.117 45.3907 304.848 42.023 299.862 40.5223Z" fill="#1DB954"/>
<path d="M259.766 42.9587C259.766 46.4671 258.804 49.2777 256.94 51.4768C255.082 53.6758 252.617 54.7569 249.546 54.7569C246.474 54.7569 243.954 53.6758 242.091 51.4768C240.232 49.2777 239.325 46.4671 239.325 42.9587V42.209C239.325 38.6937 240.232 35.8849 242.091 33.6846C243.954 31.4855 246.474 30.4088 249.546 30.4088C252.617 30.4088 255.082 31.4855 256.94 33.6846C258.804 35.8849 259.766 38.6937 259.766 42.209V42.9587ZM259.366 27.6451C256.339 26.3777 253.068 25.7261 249.546 25.7261C242.547 25.7261 236.209 28.2041 232.226 33.4057C230.261 35.9769 229.259 38.9269 229.259 42.3009V42.8599C229.259 46.2338 230.261 49.2308 232.226 51.8081C234.189 54.3843 236.705 56.3001 239.725 57.5675C242.798 58.8306 246.069 59.4409 249.546 59.4409C256.594 59.4409 262.982 56.9104 266.86 51.8081C268.824 49.2308 269.832 46.2338 269.832 42.8599V42.3009C269.832 38.9269 268.824 35.9769 266.86 33.4057C264.897 30.8284 262.431 28.9081 259.366 27.6451Z" fill="#1DB954"/>
<path d="M214 36.0727C214 38.8364 211.736 40.8022 207.758 40.8022H204.181V30.8766H207.201C211.792 30.8766 214 33.1226 214 35.7469V36.0727ZM226.535 56.9999C225.072 55.7387 223.821 54.103 222.001 51.4319C219.736 48.1104 217.273 45.9982 214.656 45.1135C217.528 44.5032 219.736 43.3796 221.251 41.6926C222.809 39.9587 223.564 38.0854 223.564 36.0727V35.7469C223.564 32.9832 222.307 30.6859 219.736 28.9108C217.222 27.0831 213.399 26.194 208.314 26.194H191.093V26.3334L195.117 30.8766V54.2894L191.093 58.8276V58.9714H208.214V58.8276L204.181 54.2894V45.4861H204.286C205.293 45.4861 206.244 45.957 207.201 46.8886C208.158 47.779 209.572 49.6054 211.436 52.3691C213.149 54.9403 215.158 56.7729 217.473 57.8497C219.842 58.9264 222.857 59.4379 226.637 59.4379H229.757V59.299C228.8 58.6932 228.25 58.3142 227.999 58.1748C227.749 57.9841 227.293 57.6121 226.535 56.9999Z" fill="#1DB954"/>
<path d="M168.302 42.1603L174.194 46.7036V50.8229C174.194 52.8825 173.687 53.9592 171.828 54.477C171.121 54.6633 170.214 54.7558 169.158 54.7558C166.087 54.7558 163.567 53.6804 161.708 51.48C159.843 49.2753 158.936 46.4703 158.936 42.9569V42.2072C158.936 38.6982 159.843 35.8876 161.708 33.6829C163.567 31.4838 166.087 30.4071 169.158 30.4071C172.279 30.4071 176.102 32.6593 180.691 37.1038H180.837L180.786 27.3651C177.715 26.2884 173.837 25.725 169.158 25.725C162.159 25.725 155.821 28.2086 151.838 33.404C149.874 35.982 148.872 38.9258 148.872 42.2998V42.8644C148.872 46.2327 149.874 49.2297 151.838 51.8071C153.807 54.3832 156.322 56.299 159.343 57.5664C162.41 58.8295 165.68 59.4398 169.158 59.4398C171.322 59.4398 173.787 59.0671 176.657 58.3161C179.529 57.5664 181.693 56.8155 183.256 56.1171V42.0209H168.302V42.1603Z" fill="#1DB954"/>
<path d="M122.386 46.7492L126.365 38.0854L130.644 46.7492H122.386ZM130.493 26.194H126.365L113.43 54.3363L109.451 58.8276V58.9714H122.943V58.8276L118.915 54.3363L120.273 51.4319H132.958L134.366 54.2894L130.343 58.8276V58.9714H148.366V58.8276L144.337 54.2894L130.493 26.194Z" fill="#1DB954"/>
</svg>
