<svg width="12" height="24" viewBox="0 0 12 24" fill="none" xmlns="http://www.w3.org/2000/svg">
<path d="M12 5.71429V17.7143C12 21.1886 9.31636 24 6 24C2.68364 24 0 21.1886 0 17.7143V4.57143C0 2.04571 1.95273 0 4.36364 0C6.77455 0 8.72727 2.04571 8.72727 4.57143V16.5714C8.72727 17.3292 8.43994 18.0559 7.92847 18.5917C7.41701 19.1276 6.72332 19.4286 6 19.4286C5.27668 19.4286 4.58299 19.1276 4.07153 18.5917C3.56006 18.0559 3.27273 17.3292 3.27273 16.5714V5.71429H4.36364V16.5714C4.36364 17.0261 4.53604 17.4621 4.84292 17.7836C5.14979 18.1051 5.56601 18.2857 6 18.2857C6.43399 18.2857 6.85021 18.1051 7.15708 17.7836C7.46396 17.4621 7.63636 17.0261 7.63636 16.5714V4.57143C7.63636 3.66212 7.29156 2.79004 6.6778 2.14706C6.06405 1.50408 5.23162 1.14286 4.36364 1.14286C3.49566 1.14286 2.66322 1.50408 2.04947 2.14706C1.43571 2.79004 1.09091 3.66212 1.09091 4.57143V17.7143C1.09091 19.0783 1.60812 20.3864 2.52875 21.3508C3.44938 22.3153 4.69803 22.8571 6 22.8571C7.30197 22.8571 8.55062 22.3153 9.47125 21.3508C10.3919 20.3864 10.9091 19.0783 10.9091 17.7143V5.71429H12Z" fill="#666666"/>
</svg>
