<svg width="12" height="24" viewBox="0 0 12 24" fill="none" xmlns="http://www.w3.org/2000/svg">
<path d="M9.92313 23.1805C9.68451 23.1813 9.44875 23.1286 9.23316 23.0264C9.01756 22.9241 8.82763 22.7748 8.6773 22.5895L0.962714 13.0062C0.727792 12.7204 0.599365 12.3619 0.599365 11.992C0.599365 11.622 0.727792 11.2635 0.962714 10.9777L8.94882 1.39438C9.21994 1.0682 9.60952 0.863081 10.0319 0.824141C10.4542 0.785202 10.8747 0.915634 11.2009 1.18674C11.5271 1.45785 11.7322 1.84743 11.7711 2.26978C11.8101 2.69213 11.6797 3.11265 11.4085 3.43883L4.26896 11.9999L11.169 20.5611C11.3643 20.7955 11.4883 21.081 11.5265 21.3837C11.5646 21.6865 11.5152 21.9938 11.3842 22.2694C11.2531 22.545 11.0459 22.7772 10.7869 22.9387C10.528 23.1001 10.2283 23.1841 9.92313 23.1805Z" fill="white"/>
</svg>
