<svg width="12" height="24" viewBox="0 0 12 24" fill="none" xmlns="http://www.w3.org/2000/svg">
<path d="M2.07693 0.819506C2.31555 0.818696 2.55131 0.87136 2.76691 0.973628C2.9825 1.0759 3.17244 1.22517 3.32276 1.41048L11.0373 10.9938C11.2723 11.2796 11.4007 11.6381 11.4007 12.008C11.4007 12.378 11.2723 12.7365 11.0373 13.0223L3.05124 22.6056C2.78013 22.9318 2.39055 23.1369 1.9682 23.1759C1.54585 23.2148 1.12533 23.0844 0.799154 22.8133C0.472974 22.5421 0.267853 22.1526 0.228913 21.7302C0.189973 21.3079 0.320404 20.8874 0.591515 20.5612L7.7311 12.0001L0.831099 3.43895C0.635785 3.2045 0.511718 2.91901 0.473578 2.61626C0.435437 2.31351 0.484818 2.00617 0.615879 1.7306C0.74694 1.45504 0.954196 1.22278 1.21312 1.06132C1.47205 0.899857 1.77181 0.815944 2.07693 0.819506Z" fill="white"/>
</svg>
